<?xml version="1.0" encoding="UTF-8"?>
<!-- Generator: Adobe Illustrator 20.0.0, SVG Export Plug-In . SVG Version: 6.00 Build 0)  -->
<svg version="1.1" id="Layer_1" xmlns="http://www.w3.org/2000/svg" xmlns:xlink="http://www.w3.org/1999/xlink" x="0px" y="0px" viewBox="0 0 96.8 96.8" style="enable-background:new 0 0 96.8 96.8;" xml:space="preserve">
<style type="text/css">
	.st0{clip-path:url(#XMLID_2_);fill:#60697A;}
	.st1{clip-path:url(#XMLID_2_);fill:#FFFFFF;}
</style>
<g id="XMLID_70_">
	<defs>
		<rect id="XMLID_72_" width="96.8" height="96.8"/>
	</defs>
	<clipPath id="XMLID_2_">
		<use xlink:href="#XMLID_72_" style="overflow:visible;"/>
	</clipPath>
	<path id="XMLID_85_" class="st0" d="M48.4,96.8c26.7,0,48.4-21.7,48.4-48.4C96.8,21.7,75.2,0,48.4,0S0,21.7,0,48.4   C0,75.2,21.7,96.8,48.4,96.8"/>
	<path id="XMLID_73_" class="st1" d="M58.2,65.5h-17v-4.1h17V65.5z M67.7,57.7H41.2v-4.1h26.6V57.7z M67.7,50H41.2v-4.1h26.6V50z    M67.7,42.3H41.2v-4.1h26.6V42.3z M67.7,50H41.2v-4.1h26.6V50z M67.7,42.3H41.2v-4.1h26.6V42.3z M67.7,34.6H41.2v-4.1h26.6V34.6z    M28.9,33.5c0,1.5-1.3,2.8-2.9,2.8h-6c-1.6,0-2.9-1.3-2.9-2.8c0-1.5,1.3-2.8,2.9-2.8h6C27.7,30.7,28.9,32,28.9,33.5 M28.9,62.1   c0,1.5-1.3,2.8-2.9,2.8h-6c-1.6,0-2.9-1.3-2.9-2.8c0-1.5,1.3-2.8,2.9-2.8h6C27.7,59.3,28.9,60.6,28.9,62.1 M67.2,26   c2.4,0,4.3,1.9,4.3,4.3v35c0,2.4-1.9,4.3-4.3,4.3h-30V26H67.2z M22.9,28.9h3.1c2.6,0,4.6,2,4.6,4.6c0,2.5-2.1,4.6-4.6,4.6h-3.2   v19.5h3.2c2.6,0,4.6,2,4.6,4.6c0,2.5-2.1,4.6-4.6,4.6h-3.1c0.7,4.5,4.5,7.9,9.2,7.9h35c5.1,0,9.3-4.2,9.3-9.3v-35   c0-5.1-4.2-9.3-9.3-9.3h-35C27.5,21,23.6,24.4,22.9,28.9"/>
</g>
</svg>